<svg xmlns="http://www.w3.org/2000/svg" width="47" height="47" viewBox="0 0 47 47">
    <defs>
        <clipPath id="clip-path">
            <path id="Rectangle_1153" fill="#fff" stroke="#707070" d="M0 0H29V21H0z" transform="translate(70.992 58.529)"/>
        </clipPath>
        <style>
            .cls-4{fill:#3f3f3f}
        </style>
    </defs>
    <g id="Analytics_icon" transform="translate(-15 -10)">
        <g id="Ellipse_105" fill="#fafcfa" stroke="#c7c7c7" transform="translate(15 10)">
            <circle cx="23.5" cy="23.5" r="23.5" stroke="none"/>
            <circle cx="23.5" cy="23.5" r="23" fill="none"/>
        </g>
        <g id="Mask_Group_101" clip-path="url(#clip-path)" transform="translate(-47.992 -36.029)">
            <g id="graph" transform="translate(75.314 61.018)">
                <g id="Group_1347">
                    <g id="Group_1346">
                        <path id="Path_997" d="M22.449 19.117h-2.805v-.839a.678.678 0 0 0-1.357 0v.839h-5v-.839a.678.678 0 0 0-1.357 0v.839h-5v-.839a.678.678 0 0 0-1.357 0v.839H1.357V15.5l2.925-2.832a.678.678 0 1 0-.944-.975l-1.981 1.918V4.118a.678.678 0 0 0-1.357 0v15.677a.678.678 0 0 0 .678.678h21.77a.678.678 0 1 0 0-1.356z" class="cls-4" transform="translate(0 -3.44)"/>
                        <path id="Path_998" d="M8.945 15.15a2.123 2.123 0 0 0 1.465-.585l1.867.964a.678.678 0 0 0 .622-1.206l-1.851-.956a2.131 2.131 0 1 0-2.1 1.783zm0-2.9a.774.774 0 1 1-.774.774.775.775 0 0 1 .774-.778z" class="cls-4" transform="translate(-2.687 -6.377)"/>
                        <path id="Path_999" d="M19.449 18.817a2.13 2.13 0 0 0 1.951-2.982l2.786-2.9a.678.678 0 1 0-.979-.939l-2.72 2.834a2.13 2.13 0 1 0-1.039 3.989zm0-2.9a.774.774 0 1 1-.774.774.775.775 0 0 1 .774-.779z" class="cls-4" transform="translate(-6.828 -6.73)"/>
                        <path id="Path_1000" d="M31.876 6.762a2.114 2.114 0 0 0-1.347-.919 2.131 2.131 0 1 0-.872 4.171 2.13 2.13 0 0 0 2.523-1.65 2.117 2.117 0 0 0-.304-1.602zm-1.025 1.324a.786.786 0 0 1-.916.6.774.774 0 1 1 .317-1.515.774.774 0 0 1 .6.915z" class="cls-4" transform="translate(-11.025 -4.369)"/>
                    </g>
                </g>
            </g>
        </g>
    </g>
</svg>
