<svg xmlns="http://www.w3.org/2000/svg" width="25" height="20" viewBox="0 0 25 20">
    <defs>
        <clipPath id="clip-path">
            <path id="Rectangle_1235" fill="#fff" stroke="#707070" d="M0 0H25V20H0z" transform="translate(1157 533.685)"/>
        </clipPath>
        <style>
            .cls-3{fill:#3f3f3f}
        </style>
    </defs>
    <g id="Eye_Icon" clip-path="url(#clip-path)" transform="translate(-1157 -533.685)">
        <g id="hidden" transform="translate(1157 534.762)">
            <path id="Path_1145" d="M19.312 25.809a10.459 10.459 0 0 1-1.893-.177.825.825 0 0 1-.7-.814.839.839 0 0 1 .981-.812 8.8 8.8 0 0 0 1.607.152c4.89 0 9.137-4.282 10.473-5.778a22.217 22.217 0 0 0-2.922-2.731.826.826 0 1 1 1.011-1.306 22.557 22.557 0 0 1 3.645 3.529.825.825 0 0 1 0 1.018c-.214.282-5.496 6.919-12.202 6.919z" class="cls-3" transform="translate(-6.93 -9.3)"/>
            <path id="Path_1146" d="M22.521 6.742a.825.825 0 0 0-1.167 0l-2.626 2.625A12.805 12.805 0 0 0 15.6 8.33a10.4 10.4 0 0 0-1.918-.179c-6.706 0-11.985 6.638-12.206 6.92a.825.825 0 0 0 0 1.018 22.521 22.521 0 0 0 3.642 3.526 19.492 19.492 0 0 0 1.993 1.371l-2.267 2.265a.825.825 0 1 0 1.167 1.167l16.51-16.509a.825.825 0 0 0 0-1.167zM6.132 18.312a22.218 22.218 0 0 1-2.923-2.732C4.545 14.084 8.792 9.8 13.682 9.8a8.777 8.777 0 0 1 1.619.152 10.71 10.71 0 0 1 2.178.66l-1.521 1.521a4.127 4.127 0 0 0-5.719 5.719l-1.922 1.927a17.325 17.325 0 0 1-2.185-1.468zm5.322-1.672a2.453 2.453 0 0 1-.248-1.06 2.485 2.485 0 0 1 .72-1.748 2.542 2.542 0 0 1 2.807-.471z" class="cls-3" transform="translate(-1.3 -6.5)"/>
        </g>
    </g>
</svg>
