<svg xmlns="http://www.w3.org/2000/svg" id="family" width="22.105" height="29.678" viewBox="0 0 22.105 29.678">
    <defs>
        <style>
            .cls-1{fill:#3f3f3f}
        </style>
    </defs>
    <path id="Path_770" d="M9.729 13.9V9.846a4.292 4.292 0 0 0-2.715-3.987 3.118 3.118 0 0 0 .978-2.269v-.462a3.128 3.128 0 0 0-6.255 0v.463a3.119 3.119 0 0 0 .978 2.269A4.292 4.292 0 0 0 0 9.846V13.9a2.552 2.552 0 0 0 1.969 2.481v1.258a.579.579 0 0 0 1.158 0v-2.06H6.6v12.362a.579.579 0 0 1-1.158 0v-8.148a.579.579 0 1 0-1.158 0v8.148a.579.579 0 0 1-1.158 0V22.05a.579.579 0 1 0-1.158 0v5.891a1.736 1.736 0 0 0 2.9 1.294 1.736 1.736 0 0 0 2.9-1.294v-11.56A2.552 2.552 0 0 0 9.729 13.9zM2.9 3.128a1.969 1.969 0 0 1 3.938 0v.463a1.969 1.969 0 1 1-3.938 0zm.232 11.294v-2.49a.579.579 0 1 0-1.158 0v3.232a1.392 1.392 0 0 1-.816-1.264V9.846a3.131 3.131 0 0 1 3.127-3.128h1.159a3.131 3.131 0 0 1 3.127 3.128V13.9a1.392 1.392 0 0 1-.811 1.263v-3.232a.579.579 0 0 0-1.158 0v2.49zm0 0" class="cls-1"/>
    <path id="Path_771" d="M34.552 332.623a.579.579 0 1 0-.409-.17.583.583 0 0 0 .409.17zm0 0" class="cls-1" transform="translate(-32.003 -312.251)"/>
    <path id="Path_773" d="M289.253 17.3v-3.254a4.054 4.054 0 0 0-8.108 0v3.265a3.922 3.922 0 0 0-1.383 2.99v2.823a2.748 2.748 0 0 0 2.309 2.709v5.629a.579.579 0 0 0 .463.567v5.414a2.861 2.861 0 0 0 5.328 0V32.03a.579.579 0 0 0 .463-.567v-.985a.579.579 0 0 0-1.158 0v.406h-3.938v-10a.579.579 0 1 0-1.158 0v3.762a1.588 1.588 0 0 1-1.151-1.525V20.3a2.776 2.776 0 0 1 2.773-2.773h3.026a2.776 2.776 0 0 1 2.773 2.773v2.823a1.588 1.588 0 0 1-1.166 1.529v-3.765a.579.579 0 1 0-1.158 0v5.288a.579.579 0 0 0 1.158 0v-.339a2.748 2.748 0 0 0 2.324-2.712V20.3a3.924 3.924 0 0 0-1.4-3zM286.7 37.444a.463.463 0 0 1-.927 0v-5.4h.927zm-2.085-5.4v5.4a.463.463 0 1 1-.927 0v-5.4zm-2.317-18a2.9 2.9 0 0 1 5.792 0v2.573a3.9 3.9 0 0 0-.97-.228 2.185 2.185 0 0 0 .275-1.063v-.716a1.34 1.34 0 0 0-1.339-1.339h-1.724a1.34 1.34 0 0 0-1.332 1.34v.716a2.187 2.187 0 0 0 .276 1.065 3.906 3.906 0 0 0-.971.232zm1.853 1.282v-.716a.181.181 0 0 1 .181-.18h1.724a.181.181 0 0 1 .181.18v.716a1.043 1.043 0 0 1-2.085 0zm0 0" class="cls-1" transform="translate(-268.545 -9.413)"/>
    <path id="Path_774" d="M408.11 316.949a.579.579 0 1 0 .409.17.583.583 0 0 0-.409-.17zm0 0" class="cls-1" transform="translate(-388.909 -298.577)"/>
</svg>
