<svg xmlns="http://www.w3.org/2000/svg" width="25" height="25" viewBox="0 0 25 25">
    <defs>
        <clipPath id="fvwzydmhva">
            <path fill="#fff" stroke="#707070" d="M0 0H25V25H0z" transform="translate(78 65)"/>
        </clipPath>
    </defs>
    <g clip-path="url(#fvwzydmhva)" transform="translate(-78 -65)">
        <g>
            <path fill="#3f3f3f" d="M20.536 10.714H9.821V7.777a4.205 4.205 0 0 1 4.205-4.205h.518a4.205 4.205 0 0 1 4.206 4.205.893.893 0 0 0 1.786 0 6 6 0 0 0-5.991-5.991h-.518a6 6 0 0 0-5.991 5.991v2.938a2.679 2.679 0 0 0-2.679 2.679v8.3a5.1 5.1 0 0 0 5.089 5.089h7.679a5.1 5.1 0 0 0 5.089-5.083v-8.3a2.679 2.679 0 0 0-2.678-2.686zm.893 10.986a3.3 3.3 0 0 1-3.3 3.3h-7.683a3.3 3.3 0 0 1-3.3-3.3v-8.3a.893.893 0 0 1 .893-.893h12.5a.893.893 0 0 1 .893.893zm-6.25-3.2v2.929a.893.893 0 0 1-1.786 0V18.5a1.786 1.786 0 1 1 1.786 0z" transform="translate(76.214 63.214)"/>
        </g>
    </g>
</svg>
