<svg xmlns="http://www.w3.org/2000/svg" width="26" height="24" viewBox="0 0 26 24">
    <defs>
        <clipPath id="clip-path">
            <path id="Rectangle_1190" fill="#fff" stroke="#707070" d="M0 0H24V26H0z" transform="translate(68.5 158.711)"/>
        </clipPath>
        <style>
            .cls-3{fill:#3f3f3f}
        </style>
    </defs>
    <g id="User_icon" clip-path="url(#clip-path)" transform="rotate(-90 -33.105 125.606)">
        <g id="avatar" transform="translate(69.608 158.711)">
            <g id="Group_1374">
                <path id="Path_1039" d="M14.346 14.062h.173a4.987 4.987 0 0 0 3.81-1.648c2.081-2.345 1.735-6.366 1.7-6.75-.135-2.88-1.5-4.259-2.621-4.9A6.009 6.009 0 0 0 14.5 0h-.092A6.018 6.018 0 0 0 11.5.74c-1.135.643-2.518 2.021-2.653 4.923-.038.384-.384 4.4 1.7 6.75a4.967 4.967 0 0 0 3.799 1.649zM10.287 5.8c0-.016.005-.032.005-.043.178-3.875 2.929-4.291 4.107-4.291h.065c1.459.032 3.94.627 4.107 4.291a.105.105 0 0 0 .005.043c.005.038.384 3.713-1.335 5.647a3.542 3.542 0 0 1-2.782 1.153h-.054a3.53 3.53 0 0 1-2.778-1.157c-1.713-1.921-1.345-5.612-1.34-5.643z" class="cls-3" transform="translate(-3.341)"/>
                <path id="Path_1040" d="M24.512 23.363v-.016c0-.043-.005-.086-.005-.135-.032-1.07-.1-3.572-2.448-4.372L22 18.823a15.594 15.594 0 0 1-4.485-2.043.729.729 0 1 0-.838 1.194 16.831 16.831 0 0 0 4.934 2.254c1.259.449 1.4 1.794 1.438 3.026a1.085 1.085 0 0 0 .005.135 9.809 9.809 0 0 1-.113 1.67 19.889 19.889 0 0 1-9.528 2.216 20 20 0 0 1-9.533-2.221 9.287 9.287 0 0 1-.113-1.67c0-.043.005-.086.005-.135.038-1.232.178-2.578 1.438-3.026a16.989 16.989 0 0 0 4.934-2.254.729.729 0 1 0-.838-1.194 15.423 15.423 0 0 1-4.485 2.043c-.022.005-.038.011-.054.016-2.345.805-2.416 3.307-2.448 4.372a1.085 1.085 0 0 1-.005.135v.016a8.287 8.287 0 0 0 .276 2.448.693.693 0 0 0 .281.34 20.441 20.441 0 0 0 10.549 2.583 20.5 20.5 0 0 0 10.549-2.583.723.723 0 0 0 .281-.34 8.7 8.7 0 0 0 .262-2.442z" class="cls-3" transform="translate(-2.316 -2.632)"/>
            </g>
        </g>
    </g>
</svg>
